# xmcd
# Track frame offsets:
# 150
# 11400
# 22204
# 33135
# 43682
# 52644
# 64966
# 82376
# 91675
# 100079
# 110403
# 122533
# 133127
# 143163
# 153598
# 166610
# 179381
# 191913
# 202011
# 211837
#
# Disc length: 2981 seconds
# Revision: 0
# Processed by: cddbd v1.5.2PL0 Copyright (c) Steve Scherf et al.
# Submitted via: VisiTrax 2.11.3.279 - For more info visit www.synapsa.com
#
DISCID=100ba314
DTITLE=Fats Domino - Fat Man Sings
DYEAR=1998
DGENRE=Rock and Roll
TTITLE0=Ain't That A Shame
TTITLE1=All By Myself
TTITLE2=Blueberry Hill
TTITLE3=Margie
TTITLE4=I Hear You Knocking
TTITLE5=Don't Blame It On Me
TTITLE6=You Always Hurt The One You Love
TTITLE7=Walking To New Orleans
TTITLE8=Honey Chile
TTITLE9=My Happiness
TTITLE10=Sick And Tired
TTITLE11=Country Boy
TTITLE12=Your Cheatin' Heart
TTITLE13=You Win Again
TTITLE14=One Night
TTITLE15=It Keeps Rainin' (Tears From My Eyes)
TTITLE16=Trouble Blues
TTITLE17=Nothing New (Same Old Thing)
TTITLE18=My Blue Heaven
TTITLE19=The Fat Man
EXTD=DISKY BX855461
EXTT0=(Bartholomew/Domino)
EXTT1=(Bartholomew/Domino)
EXTT2=(Lewis/Rose/Stock)
EXTT3=(Conrad/Davis/Robinson)
EXTT4=(Bartholomew/King)
EXTT5=(Bartholomew/Domino)
EXTT6=(Fisher/Roberts)
EXTT7=(Bartholomew/Domino/Guidry)
EXTT8=
EXTT9=(Bergantine/Peterson)
EXTT10=(Bartholomew/Kenner)
EXTT11=(Bartholomew/Domino)
EXTT12=(Williams)
EXTT13=(Williams)
EXTT14=(Bartholomew/King/Steinman)
EXTT15=(Bartholomew/Domino/Guidry)
EXTT16=(Hooker)
EXTT17=(Bartholomew/Domino/Jessup/Maddux)
EXTT18=(Donaldson/Whiting)
EXTT19=(Bartholomew/Domino)
PLAYORDER=
